# xmcd
#
# Track frame offsets:
#	150
#	14284
#	29330
#	43200
#	56072
#	69805
#	84642
#	97002
#	110207
#	121537
#	133312
#	145462
#	158537
#	170292
#	181630
#	194320
#	208660
#	220807
#	233335
#	244350
#	257537
#	268640
#	281160
#	294105
#	305757
#
# Disc length: 4231 seconds
#
# Revision: 1
# Processed by: cddbd v1.5.1PL0 Copyright (c) Steve Scherf et al.
# Submitted via: audiograbber 1.81.03
#
DISCID=6b108519
DTITLE=Eddy Arnold - The Tennessee Plowboy and His Guitar
DYEAR=1998
DGENRE=Country
TTITLE0=Mother's Prayer - 1945
TTITLE1=Mommy Please Stay Home With Me - 1945
TTITLE2=The Cattle Call - 1945
TTITLE3=Each Minute Seems A Million Years - 1945
TTITLE4=Did You See My Daddy Over There - 1945
TTITLE5=Many Tears Ago - 1945
TTITLE6=I Walk Alone - 1945
TTITLE7=You Must Walk The Line - 1945
TTITLE8=(I'll Have To) Live And Learn - 1946
TTITLE9=Be Sure There's No Mistake - 1947
TTITLE10=I Couldn't Believe It Was True - 1947
TTITLE11=I Talk To Myself About You - 1946
TTITLE12=All Alone In This World Without You - 1946
TTITLE13=Can't Win, Can't Place, Can't Show - 1946
TTITLE14=What Is Life Without Love - 1947
TTITLE15=That's How Much I Love You - 1946
TTITLE16=Why Didn't You Take That Too - 1998
TTITLE17=Chained To A Memory - 1946
TTITLE18=Easy Rockin' Chair - 1947
TTITLE19=To My Sorrow - 1947
TTITLE20=It's A Sin - 1947
TTITLE21=I'm Somebody Nobody Loves - 1998
TTITLE22=That Little Boy Of Mine - 1998
TTITLE23=Don't Bother To Cry - 1947
TTITLE24=Me Too - 1998
EXTD=Bear Family - BCD 15726 (1998]\nTitles include release year
EXTT0=
EXTT1=
EXTT2=
EXTT3=
EXTT4=
EXTT5=
EXTT6=
EXTT7=
EXTT8=
EXTT9=
EXTT10=
EXTT11=
EXTT12=
EXTT13=
EXTT14=
EXTT15=
EXTT16=
EXTT17=
EXTT18=
EXTT19=
EXTT20=
EXTT21=
EXTT22=
EXTT23=
EXTT24=
PLAYORDER=
